REM DIRINDEX 1\2,1\3,1\4,1\5
REM DIRNAME "folder01","folder02","folder03","folder04","folder05"
TITLE ""
FILE "P1Q_t_0839-0848.mp3" MP3
  TRACK 01 AUDIO
    TITLE "3:cjc173_3463"
    INDEX 01 00:00:00
  TRACK 02 AUDIO
    TITLE "0:"
    INDEX 01 00:01:29
  TRACK 03 AUDIO
    TITLE "4:cjc173_3464"
    INDEX 01 00:01:51
  TRACK 04 AUDIO
    TITLE "0:"
    INDEX 01 00:04:22
  TRACK 05 AUDIO
    TITLE "5:cjc173_3465"
    INDEX 01 00:04:41
  TRACK 06 AUDIO
    TITLE "0:"
    INDEX 01 00:08:67
  TRACK 07 AUDIO
    TITLE "3:cjc173_3466"
    INDEX 01 00:09:39
  TRACK 08 AUDIO
    TITLE "0:"
    INDEX 01 00:10:50
  TRACK 09 AUDIO
    TITLE "4:cjc173_3467"
    INDEX 01 00:11:00
  TRACK 10 AUDIO
    TITLE "0:"
    INDEX 01 00:13:19
  TRACK 11 AUDIO
    TITLE "5:cjc173_3468"
    INDEX 01 00:13:40
  TRACK 12 AUDIO
    TITLE "0:"
    INDEX 01 00:18:22
  TRACK 13 AUDIO
    TITLE "3:cjc173_3469"
    INDEX 01 00:18:69
  TRACK 14 AUDIO
    TITLE "0:"
    INDEX 01 00:20:29
  TRACK 15 AUDIO
    TITLE "4:cjc173_3470"
    INDEX 01 00:20:52
  TRACK 16 AUDIO
    TITLE "0:"
    INDEX 01 00:21:61
  TRACK 17 AUDIO
    TITLE "5:cjc173_3471"
    INDEX 01 00:22:06
  TRACK 18 AUDIO
    TITLE "0:"
    INDEX 01 00:28:07
  TRACK 19 AUDIO
    TITLE "3:cjc173_3472"
    INDEX 01 00:28:52
  TRACK 20 AUDIO
    TITLE "0:"
    INDEX 01 00:30:00
  TRACK 21 AUDIO
    TITLE "4:cjc173_3473"
    INDEX 01 00:30:23
  TRACK 22 AUDIO
    TITLE "0:"
    INDEX 01 00:31:42
  TRACK 23 AUDIO
    TITLE "5:cjc173_3474"
    INDEX 01 00:31:64
  TRACK 24 AUDIO
    TITLE "0:"
    INDEX 01 00:36:61
  TRACK 25 AUDIO
    TITLE "3:cjc173_3475"
    INDEX 01 00:37:31
  TRACK 26 AUDIO
    TITLE "0:"
    INDEX 01 00:38:42
  TRACK 27 AUDIO
    TITLE "4:cjc173_3476"
    INDEX 01 00:38:66
  TRACK 28 AUDIO
    TITLE "0:"
    INDEX 01 00:40:00
  TRACK 29 AUDIO
    TITLE "5:cjc173_3477"
    INDEX 01 00:40:22
  TRACK 30 AUDIO
    TITLE "0:"
    INDEX 01 00:44:70
  TRACK 31 AUDIO
    TITLE "3:cjc173_3478"
    INDEX 01 00:45:40
  TRACK 32 AUDIO
    TITLE "0:"
    INDEX 01 00:46:54
  TRACK 33 AUDIO
    TITLE "4:cjc173_3479"
    INDEX 01 00:47:02
  TRACK 34 AUDIO
    TITLE "0:"
    INDEX 01 00:52:01
  TRACK 35 AUDIO
    TITLE "5:cjc173_3480"
    INDEX 01 00:52:21
  TRACK 36 AUDIO
    TITLE "0:"
    INDEX 01 00:58:21
  TRACK 37 AUDIO
    TITLE "3:cjc173_3481"
    INDEX 01 00:58:68
  TRACK 38 AUDIO
    TITLE "0:"
    INDEX 01 01:00:18
  TRACK 39 AUDIO
    TITLE "4:cjc173_3482"
    INDEX 01 01:00:40
  TRACK 40 AUDIO
    TITLE "0:"
    INDEX 01 01:02:29
  TRACK 41 AUDIO
    TITLE "5:cjc173_3483"
    INDEX 01 01:02:49
  TRACK 42 AUDIO
    TITLE "0:"
    INDEX 01 01:07:03
  TRACK 43 AUDIO
    TITLE "3:cjc173_3484"
    INDEX 01 01:07:48
  TRACK 44 AUDIO
    TITLE "0:"
    INDEX 01 01:08:59
  TRACK 45 AUDIO
    TITLE "4:cjc173_3485"
    INDEX 01 01:09:10
  TRACK 46 AUDIO
    TITLE "0:"
    INDEX 01 01:10:72
  TRACK 47 AUDIO
    TITLE "5:cjc173_3486"
    INDEX 01 01:11:18
  TRACK 48 AUDIO
    TITLE "0:"
    INDEX 01 01:16:27
  TRACK 49 AUDIO
    TITLE "3:cjc173_3487"
    INDEX 01 01:16:74
  TRACK 50 AUDIO
    TITLE "0:"
    INDEX 01 01:18:16
  TRACK 51 AUDIO
    TITLE "4:cjc173_3488"
    INDEX 01 01:18:40
  TRACK 52 AUDIO
    TITLE "0:"
    INDEX 01 01:20:45
  TRACK 53 AUDIO
    TITLE "5:cjc173_3489"
    INDEX 01 01:20:64
  TRACK 54 AUDIO
    TITLE "0:"
    INDEX 01 01:25:52
  TRACK 55 AUDIO
    TITLE "3:cjc173_3490"
    INDEX 01 01:26:22
  TRACK 56 AUDIO
    TITLE "0:"
    INDEX 01 01:27:58
  TRACK 57 AUDIO
    TITLE "4:cjc173_3491"
    INDEX 01 01:28:05
  TRACK 58 AUDIO
    TITLE "0:"
    INDEX 01 01:30:16
  TRACK 59 AUDIO
    TITLE "5:cjc173_3492"
    INDEX 01 01:30:37
  TRACK 60 AUDIO
    TITLE "0:"
    INDEX 01 01:35:23
